<?xml version="1.0" encoding="UTF-8"?>
<svg xmlns="http://www.w3.org/2000/svg" xmlns:xlink="http://www.w3.org/1999/xlink" width="36pt" height="36pt" viewBox="0 0 36 36" version="1.1">
<g id="surface1">
<path style=" stroke:none;fill-rule:nonzero;fill:rgb(0%,0%,0%);fill-opacity:1;" d="M 21.886719 12 L 18 15.886719 L 14.113281 12 L 12 14.113281 L 15.886719 18 L 12 21.886719 L 14.113281 24 L 18 20.113281 L 21.886719 24 L 24 21.886719 L 20.113281 18 L 24 14.113281 Z M 18 3 C 9.703125 3 3 9.703125 3 18 C 3 26.296875 9.703125 33 18 33 C 26.296875 33 33 26.296875 33 18 C 33 9.703125 26.296875 3 18 3 Z M 18 30 C 11.386719 30 6 24.613281 6 18 C 6 11.386719 11.386719 6 18 6 C 24.613281 6 30 11.386719 30 18 C 30 24.613281 24.613281 30 18 30 Z M 18 30 "/>
</g>
</svg>
