<?xml version="1.0" encoding="UTF-8"?>
<svg xmlns="http://www.w3.org/2000/svg" xmlns:xlink="http://www.w3.org/1999/xlink" width="36pt" height="36pt" viewBox="0 0 36 36" version="1.1">
<g id="surface1">
<path style=" stroke:none;fill-rule:nonzero;fill:rgb(0%,0%,0%);fill-opacity:1;" d="M 24.886719 11.371094 L 15 21.253906 L 9.613281 15.886719 L 7.5 18 L 15 25.5 L 27 13.5 Z M 18 3 C 9.71875 3 3 9.71875 3 18 C 3 26.28125 9.71875 33 18 33 C 26.28125 33 33 26.28125 33 18 C 33 9.71875 26.28125 3 18 3 Z M 18 30 C 11.371094 30 6 24.628906 6 18 C 6 11.371094 11.371094 6 18 6 C 24.628906 6 30 11.371094 30 18 C 30 24.628906 24.628906 30 18 30 Z M 18 30 "/>
</g>
</svg>
